<?xml version="1.0" encoding="UTF-8"?>
<svg xmlns="http://www.w3.org/2000/svg" xmlns:xlink="http://www.w3.org/1999/xlink" width="50pt" height="50pt" viewBox="0 0 50 50" version="1.1">
<g id="surface1">
<path style=" stroke:none;fill-rule:nonzero;fill:rgb(0%,0%,0%);fill-opacity:1;" d="M 47.460938 24.1875 L 43 24.1875 L 43.0625 22.351562 L 44.007812 22.351562 C 44.453125 22.351562 44.816406 21.992188 44.816406 21.546875 C 44.816406 21.097656 44.453125 20.734375 44.007812 20.734375 L 41.28125 20.734375 C 40.902344 18.765625 39.171875 17.28125 37.09375 17.28125 C 35.019531 17.28125 33.289062 18.765625 32.90625 20.734375 L 13.40625 20.734375 L 41.589844 14.507812 C 42.023438 14.410156 42.304688 13.976562 42.203125 13.539062 C 42.109375 13.101562 41.679688 12.828125 41.242188 12.925781 L 28.53125 15.734375 L 28.335938 14.835938 C 28.03125 13.46875 26.675781 12.601562 25.3125 12.90625 L 20.25 14.023438 C 18.882812 14.328125 18.015625 15.683594 18.320312 17.046875 L 18.515625 17.945312 L 5.808594 20.753906 C 5.375 20.851562 5.097656 21.28125 5.195312 21.71875 C 5.269531 22.0625 5.554688 22.304688 5.882812 22.34375 C 5.90625 22.351562 5.9375 22.351562 5.960938 22.351562 C 5.96875 22.351562 5.976562 22.351562 5.984375 22.351562 C 5.984375 22.351562 5.988281 22.351562 5.992188 22.351562 L 6.9375 22.351562 L 7 24.1875 L 2.539062 24.1875 C 1.140625 24.1875 0 25.328125 0 26.726562 C 0 28.125 1.140625 29.265625 2.539062 29.265625 L 7.167969 29.265625 L 7.664062 44.148438 C 7.742188 46.460938 9.613281 48.273438 11.929688 48.273438 L 38.070312 48.273438 C 40.386719 48.273438 42.257812 46.460938 42.335938 44.148438 L 42.832031 29.265625 L 47.460938 29.265625 C 48.859375 29.265625 50 28.125 50 26.726562 C 50 25.328125 48.859375 24.1875 47.460938 24.1875 Z M 20.597656 15.605469 L 25.660156 14.488281 C 26.15625 14.378906 26.644531 14.691406 26.753906 15.1875 L 26.953125 16.082031 L 20.097656 17.59375 L 19.898438 16.699219 C 19.789062 16.203125 20.101562 15.714844 20.597656 15.605469 Z M 2.539062 27.648438 C 2.03125 27.648438 1.617188 27.234375 1.617188 26.726562 C 1.617188 26.222656 2.03125 25.8125 2.539062 25.8125 L 7.054688 25.8125 L 7.117188 27.648438 Z M 37.09375 18.898438 C 38.273438 18.898438 39.273438 19.671875 39.613281 20.734375 L 34.578125 20.734375 C 34.921875 19.671875 35.917969 18.898438 37.09375 18.898438 Z M 38.070312 46.652344 L 11.929688 46.652344 C 10.742188 46.652344 9.75 45.890625 9.40625 44.816406 L 40.59375 44.816406 C 40.25 45.890625 39.257812 46.652344 38.070312 46.652344 Z M 40.746094 43.195312 L 9.253906 43.195312 L 8.558594 22.351562 L 41.441406 22.351562 Z M 47.460938 27.648438 L 42.882812 27.648438 L 42.945312 25.8125 L 47.460938 25.8125 C 47.96875 25.8125 48.382812 26.222656 48.382812 26.726562 C 48.382812 27.234375 47.96875 27.648438 47.460938 27.648438 Z M 47.460938 27.648438 "/>
<path style=" stroke:none;fill-rule:nonzero;fill:rgb(0%,0%,0%);fill-opacity:1;" d="M 42.332031 17.226562 C 42.332031 18.625 43.46875 19.761719 44.871094 19.761719 C 46.269531 19.761719 47.40625 18.625 47.40625 17.226562 C 47.40625 15.828125 46.269531 14.6875 44.871094 14.6875 C 43.46875 14.6875 42.332031 15.828125 42.332031 17.226562 Z M 44.871094 16.304688 C 45.375 16.304688 45.789062 16.71875 45.789062 17.226562 C 45.789062 17.730469 45.375 18.140625 44.871094 18.140625 C 44.363281 18.140625 43.953125 17.730469 43.953125 17.226562 C 43.953125 16.71875 44.363281 16.304688 44.871094 16.304688 Z M 44.871094 16.304688 "/>
<path style=" stroke:none;fill-rule:nonzero;fill:rgb(0%,0%,0%);fill-opacity:1;" d="M 40.550781 11.125 C 41.949219 11.125 43.085938 9.984375 43.085938 8.585938 C 43.085938 7.1875 41.949219 6.046875 40.550781 6.046875 C 39.152344 6.046875 38.015625 7.1875 38.015625 8.585938 C 38.015625 9.984375 39.152344 11.125 40.550781 11.125 Z M 40.550781 7.667969 C 41.054688 7.667969 41.46875 8.078125 41.46875 8.585938 C 41.46875 9.09375 41.054688 9.503906 40.550781 9.503906 C 40.046875 9.503906 39.632812 9.09375 39.632812 8.585938 C 39.632812 8.078125 40.046875 7.667969 40.550781 7.667969 Z M 40.550781 7.667969 "/>
<path style=" stroke:none;fill-rule:nonzero;fill:rgb(0%,0%,0%);fill-opacity:1;" d="M 33.640625 12.738281 C 34.5 12.738281 35.199219 12.039062 35.199219 11.179688 C 35.199219 10.316406 34.5 9.617188 33.640625 9.617188 C 32.78125 9.617188 32.078125 10.316406 32.078125 11.179688 C 32.078125 12.039062 32.78125 12.738281 33.640625 12.738281 Z M 33.640625 12.738281 "/>
<path style=" stroke:none;fill-rule:nonzero;fill:rgb(0%,0%,0%);fill-opacity:1;" d="M 36.664062 4.210938 C 37.347656 4.210938 37.90625 3.65625 37.90625 2.96875 C 37.90625 2.285156 37.347656 1.726562 36.664062 1.726562 C 35.976562 1.726562 35.421875 2.285156 35.421875 2.96875 C 35.421875 3.65625 35.976562 4.210938 36.664062 4.210938 Z M 36.664062 4.210938 "/>
</g>
</svg>
