<?xml version="1.0" encoding="utf-8"?>
<svg viewBox="0 0 475.3 475.3" style="enable-background:new 0 0 475.3 475.3;" xmlns="http://www.w3.org/2000/svg">
  <path d="M 155.53837955279118 4.7372095295266305 C 155.5383758544922 8.850362753216146 158.2441000308416 29.665202819915624 155.5383758544922 32.370933532714844 C 153.82771960350806 34.08159391627789 151.72230047412907 35.397484834708806 150.0116424560547 37.1081428527832 C 145.93237099540445 41.18741431343344 131.9839487936624 35.397491686762635 127.90465545654297 39.47674560546875 C 126.45717343805012 40.92421363687125 129.3521344771647 46.714156696121066 127.90465545654297 48.16162872314453 C 126.0968255541091 49.96944989091911 127.11511993408203 57.464583325846135 127.11511993408203 60.794189453125 C 127.11511993408203 72.72623606018709 126.3255844116211 84.61540039448279 126.3255844116211 95.53372192382812 C 126.3255844116211 98.17669529018576 129.34604275422257 109.09350192351182 127.11511993408203 111.32442474365234 C 124.35175299322756 114.08779168450681 118.0354547544681 113.29825114758538 115.27210235595703 116.06163024902344 C 109.71151530643165 121.62227103181499 103.31680745251883 127.22738200060617 97.90232849121094 132.64186096191406 C 88.70667436489514 141.83751508822988 88.95798003737602 158.9559909098896 80.53256225585938 167.38140869140625 C 78.53017111454817 169.38379983271747 80.53256225585938 183.9731754843256 80.53256225585938 187.11978149414062 C 80.53256225585938 205.41519205693027 79.74302673339844 220.6399748611874 79.74302673339844 239.2290802001953 C 79.74302673339844 263.12222341015695 79.74302673339844 289.92154346237743 79.74302673339844 315.0244445800781 C 79.74302673339844 320.8715057186686 82.36334821249766 340.03790176940413 78.9534912109375 343.44769287109375 C 74.87423847802339 347.5268667672042 82.24313759109852 363.054467289287 78.16395568847656 367.13372802734375 C 77.20325531470662 368.0944469678836 78.16395568847656 375.09854035867477 78.16395568847656 376.608154296875 C 78.16395568847656 383.0091989811695 76.75046978992253 403.61800504192513 80.53256225585938 407.4000244140625 C 81.49324808792254 408.36069167963683 80.53256225585938 415.3648748983945 80.53256225585938 416.87445068359375 C 80.53256225585938 423.87257048805606 81.32209777832031 433.86805491955255 81.32209777832031 442.1395568847656 C 81.32209777832031 443.5230193524143 80.44165368025494 449.94400529069566 81.32209777832031 450.8244323730469 C 84.45984606532431 453.9621200190311 88.00318108638211 457.5054693257066 91.58605194091797 461.0884094238281 C 95.2942088819166 464.79663802972715 106.96558259615969 461.4666961708725 110.5348892211914 465.03607177734375 C 111.58759036038045 466.08879326133575 115.7984413948041 463.98336774591553 116.85116577148438 465.03607177734375 C 119.58204671232573 467.76689994039987 130.86432035060562 468.1942138671875 135.01046752929688 468.1942138671875 C 136.39396853906965 468.1942138671875 142.8148819470404 467.31375455419777 143.6953582763672 468.1942138671875 C 147.185384201142 471.68417234272425 166.93512921688023 468.9837341308594 172.90814208984375 468.9837341308594 C 177.30724880202962 468.9837341308594 192.27981039618393 467.7713299777177 195.01512145996094 465.03607177734375 C 195.7348868573125 464.3163202903839 200.99005195167146 465.03607177734375 202.12094116210938 465.03607177734375 C 210.0728135251664 465.03607177734375 216.43567870139412 466.6151428222656 224.22792053222656 466.6151428222656 C 230.3623992408294 466.6151428222656 241.83373252002477 464.75926050872965 247.1244354248047 467.4046630859375 C 254.95325936928992 471.3191507092242 268.3945323241202 466.6151428222656 274.7581481933594 466.6151428222656 C 296.84768348259394 466.6151428222656 321.3892686744826 468.1942138671875 341.0790710449219 468.1942138671875 C 348.4480692545573 468.1942138671875 355.8170674641927 468.1942138671875 363.1860656738281 468.1942138671875 C 364.44333019702015 468.1942138671875 370.28127117869235 468.99436358693265 371.0814208984375 468.1942138671875 C 375.84325262804555 463.43238213757945 382.2497905485145 459.39461419333526 386.8721008300781 454.7721252441406 C 390.1701168245213 451.47398177043516 389.7830389752265 443.1764432386355 393.1883850097656 439.7709655761719 C 394.241081584344 438.71822831137763 392.1356535300087 434.50737218624903 393.1883850097656 433.4546813964844 C 396.5208619296593 430.1223332829033 392.82513679399153 418.8169060577104 396.3465270996094 415.2953796386719 C 396.6749351631729 414.9669588810469 396.6749345421977 407.72843185665084 396.3465270996094 407.4000244140625 C 390.29342651367193 401.34692382812506 398.4519653320312 381.08218383789057 392.39886474609375 375.0290832519531 C 391.9714610032953 374.6016795091547 391.97146100329536 365.1925404615484 392.39886474609375 364.76513671875 C 393.5831654866537 363.58083597819007 392.0040842692057 359.63315327962243 393.1883850097656 358.4488525390625 C 395.1622710597336 356.4749664890945 392.0040729958244 349.36929431614766 393.9779357910156 347.3953552246094 C 396.97347760423287 344.3996976237607 395.5570068359375 332.39936178617154 395.5570068359375 326.8674621582031 C 395.5570068359375 321.4849255482553 394.009429894704 314.29781975492364 391.60931396484375 309.4976806640625 C 389.67545701243563 305.6300415063455 393.1883850097656 297.5008759876453 393.1883850097656 292.1279296875 C 393.1883850097656 276.15843351606657 394.7674560546875 260.6723610494574 394.7674560546875 243.1767578125 C 394.7674560546875 227.85269015338883 393.9779357910156 214.97075273191686 393.9779357910156 199.75233459472656 C 393.9779357910156 195.91918512941743 392.6392157309438 186.08992085981595 394.7674560546875 183.96163940429688 C 398.63930769921615 180.08971292981101 392.5633504289493 165.17728462804317 391.60931396484375 164.2232666015625 C 389.7670568373729 162.3810450773911 391.872469314094 156.59110233028508 390.0302429199219 154.74884033203125 C 386.45928493379 151.17781333121138 385.72599224173877 143.33885461454244 382.1348876953125 139.7476806640625 C 371.1150549643511 128.72763495654954 360.4028649759498 117.2257834953401 348.97442626953125 105.79767608642578 C 346.7373952327187 103.56070989861128 350.4219172799401 95.40209102763711 348.1849060058594 93.16512298583984 C 342.85260447563263 87.83292450720423 345.8162841796875 65.88621210154885 345.8162841796875 56.84651565551758 C 345.8162841796875 54.75367818114994 348.86151579491326 43.311453891276656 346.6058349609375 41.055816650390625 C 340.94750294541956 35.39759398730032 323.84080241396396 41.18739690631074 318.1825866699219 35.52907180786133 C 312.0548846156979 29.401251325628138 321.85623415956917 20.253774159059496 316.603515625 15.001163482666016 C 312.2958088497972 10.693545160973763 304.443531250076 12.315675929837434 300.81280517578125 8.684884071350098 C 298.18109129670614 6.053122508927554 288.4434128237712 10.52706389096527 285.8116455078125 7.895349025726318 C 283.96935900084765 6.053099235249542 276.60043533606637 9.737598339311317 274.7581481933594 7.895349025726318 C 270.5472719846045 3.6845592821842414 255.2829378769645 10.527116966838275 251.0720977783203 6.316279411315918 C 248.06272871709388 3.3069121675871758 231.8142917363508 5.526744365692139 226.59652709960938 5.526744365692139 C 202.8942196726503 5.526744365692139 177.1409069911349 6.316279411315918 154.74884033203125 6.316279411315918" style="stroke: rgb(0, 0, 0); fill: rgb(255, 255, 255);"/>
  <path d="M355.098,106.567v-68.89c0-4.142-3.358-7.5-7.5-7.5h-19.987V7.5c0-4.142-3.358-7.5-7.5-7.5H155.189 c-4.142,0-7.5,3.358-7.5,7.5v22.677h-19.987c-4.142,0-7.5,3.358-7.5,7.5v68.89c-27.565,10.266-47.254,36.844-47.254,67.941V432.71 c0,23.484,19.105,42.59,42.59,42.59h244.225c23.484,0,42.59-19.106,42.59-42.59V174.508 C402.352,143.411,382.662,116.833,355.098,106.567z M246.233,178.777c0,4.733-3.85,8.583-8.583,8.583s-8.583-3.85-8.583-8.583 v-29.523h17.166V178.777z M253.733,134.254h-32.166c-4.142,0-7.5,3.358-7.5,7.5v17.164h-0.58c-1.567,0-2.842-1.275-2.842-2.842 v-39.042h54.01v39.042c0,1.567-1.275,2.842-2.842,2.842h-0.58v-17.164C261.233,137.612,257.875,134.254,253.733,134.254z M264.655,100.98h-54.01V80.579h54.01V100.98z M135.202,45.177h121.627c4.142,0,7.5-3.358,7.5-7.5s-3.358-7.5-7.5-7.5h-94.14V15 h149.922v15.177h-6.036c-4.142,0-7.5,3.358-7.5,7.5s3.358,7.5,7.5,7.5h33.522v55.803h-60.443V73.079c0-4.142-3.358-7.5-7.5-7.5 h-69.01c-4.142,0-7.5,3.358-7.5,7.5v27.902h-60.443V45.177z M387.352,432.71c0,15.213-12.377,27.59-27.59,27.59H115.538 c-15.213,0-27.59-12.377-27.59-27.59V174.508c0-31.691,25.783-57.475,57.475-57.475h50.223v39.042 c0,9.838,8.004,17.842,17.842,17.842h0.58v4.859c0,13.004,10.579,23.583,23.583,23.583s23.583-10.579,23.583-23.583v-4.859h0.58 c9.838,0,17.842-8.004,17.842-17.842v-39.042h50.223c31.691,0,57.475,25.783,57.475,57.475V432.71z M370.254,333.055v22.458 c0,4.142-3.358,7.5-7.5,7.5s-7.5-3.358-7.5-7.5v-22.458c0-4.142,3.358-7.5,7.5-7.5S370.254,328.913,370.254,333.055z M370.254,184.452v104.215c0,4.142-3.358,7.5-7.5,7.5s-7.5-3.358-7.5-7.5V184.452c0-20.343-16.55-36.893-36.893-36.893 c-4.142,0-7.5-3.358-7.5-7.5s3.358-7.5,7.5-7.5C346.976,132.559,370.254,155.838,370.254,184.452z"/>
</svg>